<?xml version="1.0" encoding="UTF-8" standalone="no"?>
<svg xmlns="http://www.w3.org/2000/svg" width="45" height="45" viewBox="0 0 45 45">
  <g fill="#000000" stroke="#000000" stroke-width="1.5" stroke-linecap="round" stroke-linejoin="round">
    <path d="M 22.5,9 C 20,9 18,10.5 18,13.5 C 18,14.5 18.5,16 19.5,17 C 18,18 16,19.5 16,22.5 C 16,27 19.5,29.5 22.5,30 C 25.5,29.5 29,27 29,22.5 C 29,19.5 27,18 25.5,17 C 26.5,16 27,14.5 27,13.5 C 27,10.5 25,9 22.5,9 z" />
    <path d="M 22.5,13.5 C 21.5,13.5 21,14 21,14.5 C 21,15 21.5,15.5 22.5,15.5 C 23.5,15.5 24,15 24,14.5 C 24,14 23.5,13.5 22.5,13.5 z" fill="#ffffff" stroke="#ffffff" />
    <path d="M 11,38.5 A 35,35 0 0 0 34,38.5" fill="none" stroke="#ffffff" stroke-width="1" />
    <path d="M 11,38.5 A 35,35 0 0 1 34,38.5" fill="none" stroke="#ffffff" stroke-width="1" />
    <path d="M 11,38.5 L 34,38.5" stroke="#ffffff" stroke-width="1" />
    <path d="M 22.5,30 C 22.5,30 22.5,36 22.5,38.5" stroke="#ffffff" stroke-width="1" />
  </g>
</svg> 